<?xml version="1.0" encoding="UTF-8"?>
<!DOCTYPE svg PUBLIC "-//W3C//DTD SVG 1.1//EN" "http://www.w3.org/Graphics/SVG/1.1/DTD/svg11.dtd">
<svg xmlns="http://www.w3.org/2000/svg" version="1.1" width="200px" height="40px" style="shape-rendering:geometricPrecision; text-rendering:geometricPrecision; image-rendering:optimizeQuality; fill-rule:evenodd; clip-rule:evenodd" xmlns:xlink="http://www.w3.org/1999/xlink">
<g><path style="opacity:0.807" fill="#e3e4e3" d="M 9.5,1.5 C 12.5,1.5 15.5,1.5 18.5,1.5C 18.5,2.5 18.5,3.5 18.5,4.5C 16.2075,4.24358 14.0408,4.57692 12,5.5C 12.0723,10.3082 11.239,14.8082 9.5,19C 10,19.5 10.5,20 11,20.5C 11.3333,24.5 11.6667,28.5 12,32.5C 13.7889,34.229 15.9556,34.8957 18.5,34.5C 18.5,35.5 18.5,36.5 18.5,37.5C 15.0217,37.8158 11.6883,37.3158 8.5,36C 7.15242,34.4259 6.48575,32.5925 6.5,30.5C 9.19611,24.2117 7.19611,21.2117 0.5,21.5C 0.5,20.1667 0.5,18.8333 0.5,17.5C 2.93635,17.683 5.10301,17.0163 7,15.5C 6.72206,11.8606 6.72206,8.19393 7,4.5C 7.69794,3.30943 8.53128,2.30943 9.5,1.5 Z"/></g>
<g><path style="opacity:0.794" fill="#e3e4e3" d="M 180.5,1.5 C 183.909,1.24933 187.242,1.58266 190.5,2.5C 191.937,4.02124 192.604,5.85458 192.5,8C 189.695,14.3591 191.695,17.5258 198.5,17.5C 198.5,18.8333 198.5,20.1667 198.5,21.5C 192.044,21.128 190.044,23.9614 192.5,30C 192.561,32.2605 191.894,34.2605 190.5,36C 187.312,37.3158 183.978,37.8158 180.5,37.5C 180.5,36.5 180.5,35.5 180.5,34.5C 183.044,34.8957 185.211,34.229 187,32.5C 187.333,28.5 187.667,24.5 188,20.5C 188.5,20 189,19.5 189.5,19C 187.761,14.8082 186.928,10.3082 187,5.5C 184.959,4.57692 182.792,4.24358 180.5,4.5C 180.5,3.5 180.5,2.5 180.5,1.5 Z"/></g>
<g><path style="opacity:0.64" fill="#5ec268" d="M 71.5,7.5 C 73.9118,7.69408 74.9118,9.02741 74.5,11.5C 73.1667,11.5 71.8333,11.5 70.5,11.5C 70.4326,10.0413 70.7659,8.70792 71.5,7.5 Z"/></g>
<g><path style="opacity:0.813" fill="#5ec268" d="M 134.5,7.5 C 136.39,7.2965 137.89,7.96317 139,9.5C 141.702,14.5633 143.536,19.8966 144.5,25.5C 141.506,24.5198 138.673,23.1865 136,21.5C 133.327,23.1865 130.494,24.5198 127.5,25.5C 128.654,19.0383 130.987,13.0383 134.5,7.5 Z M 135.5,13.5 C 136.339,14.6412 137.006,15.9745 137.5,17.5C 136.675,18.3857 135.675,18.719 134.5,18.5C 134.629,16.7839 134.962,15.1172 135.5,13.5 Z"/></g>
<g><path style="opacity:0.885" fill="#5ec268" d="M 168.5,7.5 C 169.496,7.41423 170.329,7.74756 171,8.5C 171.499,14.1569 171.666,19.8236 171.5,25.5C 170.167,25.5 168.833,25.5 167.5,25.5C 167.211,19.4093 167.545,13.4093 168.5,7.5 Z"/></g>
<g><path style="opacity:0.859" fill="#5ec268" d="M 148.5,8.5 C 152.514,8.33449 156.514,8.50115 160.5,9C 162.703,11.76 163.036,14.76 161.5,18C 158.607,19.1488 155.607,19.6488 152.5,19.5C 152.5,21.5 152.5,23.5 152.5,25.5C 151.167,25.5 149.833,25.5 148.5,25.5C 148.5,19.8333 148.5,14.1667 148.5,8.5 Z M 152.5,11.5 C 155.045,11.1505 157.045,11.9838 158.5,14C 156.75,15.3186 154.75,15.8186 152.5,15.5C 152.5,14.1667 152.5,12.8333 152.5,11.5 Z"/></g>
<g><path style="opacity:0.817" fill="#191a19" d="M 30.5,12.5 C 36.4995,12.555 42.4995,12.7216 48.5,13C 49,13.5 49.5,14 50,14.5C 50.4986,18.1516 50.6653,21.8183 50.5,25.5C 49.1667,25.5 47.8333,25.5 46.5,25.5C 46.8158,22.0217 46.3158,18.6883 45,15.5C 42.7137,18.365 41.8803,21.6983 42.5,25.5C 41.1667,25.5 39.8333,25.5 38.5,25.5C 38.9051,21.9521 38.4051,18.6188 37,15.5C 34.8358,18.4473 34.0025,21.7806 34.5,25.5C 33.1667,25.5 31.8333,25.5 30.5,25.5C 30.5,21.1667 30.5,16.8333 30.5,12.5 Z"/></g>
<g><path style="opacity:0.757" fill="#191a19" d="M 53.5,12.5 C 57.4359,12.9544 59.6026,15.2878 60,19.5C 61.1853,17.6228 62.1853,15.6228 63,13.5C 64.0113,12.6634 65.1779,12.33 66.5,12.5C 65.4452,18.8284 63.1118,24.6618 59.5,30C 57.5273,30.4955 55.5273,30.6621 53.5,30.5C 53.3505,29.448 53.5172,28.448 54,27.5C 54.6667,26.1667 55.3333,26.1667 56,27.5C 56.8699,26.8921 57.3699,26.0588 57.5,25C 55.7141,20.9405 54.3808,16.7739 53.5,12.5 Z"/></g>
<g><path style="opacity:0.827" fill="#5ec268" d="M 70.5,12.5 C 71.8333,12.5 73.1667,12.5 74.5,12.5C 74.666,17.8437 74.4994,23.1771 74,28.5C 71.415,31.1283 68.915,31.1283 66.5,28.5C 67.3467,27.1552 68.5134,26.1552 70,25.5C 70.499,21.1794 70.6657,16.8461 70.5,12.5 Z"/></g>
<g><path style="opacity:0.761" fill="#5ec268" d="M 81.5,20.5 C 78.8672,19.3397 78.0339,17.3397 79,14.5C 81.8959,12.255 85.0626,11.9216 88.5,13.5C 88.5949,16.8215 89.0949,20.1549 90,23.5C 87.1592,25.5037 83.9926,26.0037 80.5,25C 78.8934,23.951 78.2267,22.451 78.5,20.5C 79.5,20.5 80.5,20.5 81.5,20.5 Z M 82.5,16.5 C 83.8488,15.2035 85.1821,15.3702 86.5,17C 85.1807,17.195 83.8474,17.0283 82.5,16.5 Z M 81.5,20.5 C 83.1033,20.3118 84.4366,20.8118 85.5,22C 83.6476,22.7726 82.3143,22.2726 81.5,20.5 Z"/></g>
<g><path style="opacity:0.766" fill="#5ec268" d="M 96.5,12.5 C 106.523,11.5042 109.523,15.5042 105.5,24.5C 96.72,27.5411 92.8867,24.5411 94,15.5C 95.045,14.6266 95.8783,13.6266 96.5,12.5 Z M 99.5,15.5 C 104.289,17.1998 104.622,19.5332 100.5,22.5C 97.1314,20.5075 96.7981,18.1742 99.5,15.5 Z"/></g>
<g><path style="opacity:0.788" fill="#5ec268" d="M 111.5,12.5 C 115.263,12.5321 119.096,12.8655 123,13.5C 124.277,17.0969 124.61,20.7636 124,24.5C 122.667,25.8333 121.333,25.8333 120,24.5C 119.899,21.3004 119.232,18.3004 118,15.5C 115.714,18.365 114.88,21.6983 115.5,25.5C 114.167,25.5 112.833,25.5 111.5,25.5C 111.5,21.1667 111.5,16.8333 111.5,12.5 Z"/></g>
</svg>
